<svg display="none" xmlns="http://www.w3.org/2000/svg">

<symbol id="icon-facebook" viewBox="0 0 32 32">
  <path fill-rule="evenodd" clip-rule="evenodd" d="M0 16C0 7.16344 7.16344 0 16 0C24.8366 0 32 7.16344 32 16C32 24.8366 24.8366 32 16 32C7.16344 32 0 24.8366 0 16ZM16 8C20.4 8 24 11.6 24 16C24 20 21.1 23.4 17.1 24V18.3H19L19.4 16H17.2V14.5C17.2 13.9 17.5 13.3 18.5 13.3H19.5V11.3C19.5 11.3 18.6 11.1 17.7 11.1C15.9 11.1 14.7 12.2 14.7 14.2V16H12.7V18.3H14.7V23.9C10.9 23.3 8 20 8 16C8 11.6 11.6 8 16 8Z" />
</symbol>

<symbol id="icon-twitter" viewBox="0 0 32 32" >
  <path fill-rule="evenodd" clip-rule="evenodd" d="M0 16C0 7.16344 7.16344 0 16 0C24.8366 0 32 7.16344 32 16C32 24.8366 24.8366 32 16 32C7.16344 32 0 24.8366 0 16ZM22.1 11.5C22.8 11.4 23.4 11.3 24 11C23.6 11.7 23 12.3 22.3 12.7C22.5 17.4 19.1 22.5 13 22.5C11.2 22.5 9.5 21.9 8 21C9.7 21.2 11.5 20.7 12.7 19.8C11.2 19.8 10 18.8 9.6 17.5C10.1 17.6 10.6 17.5 11.1 17.4C9.6 17 8.5 15.6 8.5 14.1C9 14.3 9.5 14.5 10 14.5C8.6 13.5 8.1 11.6 9 10.1C10.7 12.1 13.1 13.4 15.8 13.5C15.3 11.5 16.9 9.5 19 9.5C19.9 9.5 20.8 9.9 21.4 10.5C22.2 10.3 22.9 10.1 23.5 9.7C23.3 10.5 22.8 11.1 22.1 11.5Z" />
</symbol>

<symbol id="icon-linkedin" viewBox="0 0 32 32" >
  <path fill-rule="evenodd" clip-rule="evenodd" d="M0 16C0 7.16344 7.16344 0 16 0C24.8366 0 32 7.16344 32 16C32 24.8366 24.8366 32 16 32C7.16344 32 0 24.8366 0 16ZM8.2 13.3V24H11.6V13.3H8.2ZM8 9.9C8 11 8.8 11.8 9.9 11.8C11 11.8 11.8 11 11.8 9.9C11.8 8.8 11 8 9.9 8C8.9 8 8 8.8 8 9.9ZM20.6 24H23.8V17.4C23.8 14.1 21.8 13 19.9 13C18.2 13 17 14.1 16.7 14.8V13.3H13.5V24H16.9V18.3C16.9 16.8 17.9 16 18.9 16C19.9 16 20.6 16.5 20.6 18.2V24Z" />
</symbol>

<symbol id="icon-youtybe" viewBox="0 0 32 32" >
  <path d="M18.6 16L14.4 13.6V18.4L18.6 16Z" />
  <path fill-rule="evenodd" clip-rule="evenodd" d="M0 16C0 7.16344 7.16344 0 16 0C24.8366 0 32 7.16344 32 16C32 24.8366 24.8366 32 16 32C7.16344 32 0 24.8366 0 16ZM22.2 10.7C22.9 10.9 23.4 11.4 23.6 12.1C24 13.4 24 16 24 16C24 16 24 18.6 23.7 19.9C23.5 20.6 23 21.1 22.3 21.3C21 21.6 16 21.6 16 21.6C16 21.6 10.9 21.6 9.7 21.3C9 21.1 8.5 20.6 8.3 19.9C8 18.6 8 16 8 16C8 16 8 13.4 8.2 12.1C8.4 11.4 8.90001 10.9 9.60001 10.7C10.9 10.4 15.9 10.4 15.9 10.4C15.9 10.4 21 10.4 22.2 10.7Z" />
</symbol>

<symbol id="icon-instagram" viewBox="0 0 32 32" >
  <path d="M16 18.8C14.5 18.8 13.2 17.6 13.2 16C13.2 14.5 14.4 13.2 16 13.2C17.5 13.2 18.8 14.4 18.8 16C18.8 17.5 17.5 18.8 16 18.8Z" />
  <path fill-rule="evenodd" clip-rule="evenodd" d="M19.4 9.2H12.6C11.8 9.3 11.4 9.4 11.1 9.5C10.7 9.6 10.4 9.8 10.1 10.1C9.86261 10.3374 9.75045 10.5748 9.61489 10.8617C9.57916 10.9373 9.5417 11.0166 9.5 11.1C9.48453 11.1464 9.46667 11.1952 9.44752 11.2475C9.34291 11.5333 9.2 11.9238 9.2 12.6V19.4C9.3 20.2 9.4 20.6 9.5 20.9C9.6 21.3 9.8 21.6 10.1 21.9C10.3374 22.1374 10.5748 22.2495 10.8617 22.3851C10.9374 22.4209 11.0165 22.4583 11.1 22.5C11.1464 22.5155 11.1952 22.5333 11.2475 22.5525C11.5333 22.6571 11.9238 22.8 12.6 22.8H19.4C20.2 22.7 20.6 22.6 20.9 22.5C21.3 22.4 21.6 22.2 21.9 21.9C22.1374 21.6626 22.2495 21.4252 22.3851 21.1383C22.4209 21.0626 22.4583 20.9835 22.5 20.9C22.5155 20.8536 22.5333 20.8048 22.5525 20.7525C22.6571 20.4667 22.8 20.0762 22.8 19.4V12.6C22.7 11.8 22.6 11.4 22.5 11.1C22.4 10.7 22.2 10.4 21.9 10.1C21.6626 9.86261 21.4252 9.75045 21.1383 9.61488C21.0627 9.57918 20.9833 9.54167 20.9 9.5C20.8536 9.48453 20.8048 9.46666 20.7525 9.44752C20.4667 9.3429 20.0762 9.2 19.4 9.2ZM16 11.7C13.6 11.7 11.7 13.6 11.7 16C11.7 18.4 13.6 20.3 16 20.3C18.4 20.3 20.3 18.4 20.3 16C20.3 13.6 18.4 11.7 16 11.7ZM21.4 11.6C21.4 12.1523 20.9523 12.6 20.4 12.6C19.8477 12.6 19.4 12.1523 19.4 11.6C19.4 11.0477 19.8477 10.6 20.4 10.6C20.9523 10.6 21.4 11.0477 21.4 11.6Z" />
  <path fill-rule="evenodd" clip-rule="evenodd" d="M0 16C0 7.16344 7.16344 0 16 0C24.8366 0 32 7.16344 32 16C32 24.8366 24.8366 32 16 32C7.16344 32 0 24.8366 0 16ZM12.6 7.7H19.4C20.3 7.8 20.9 7.9 21.4 8.1C22 8.4 22.4 8.6 22.9 9.1C23.4 9.6 23.7 10.1 23.9 10.6C24.1 11.1 24.3 11.7 24.3 12.6V19.4C24.2 20.3 24.1 20.9 23.9 21.4C23.6 22 23.4 22.4 22.9 22.9C22.4 23.4 21.9 23.7 21.4 23.9C20.9 24.1 20.3 24.3 19.4 24.3H12.6C11.7 24.2 11.1 24.1 10.6 23.9C10 23.6 9.6 23.4 9.1 22.9C8.6 22.4 8.3 21.9 8.1 21.4C7.9 20.9 7.7 20.3 7.7 19.4V12.6C7.8 11.7 7.9 11.1 8.1 10.6C8.4 10 8.6 9.6 9.1 9.1C9.6 8.6 10.1 8.3 10.6 8.1C11.1 7.9 11.7 7.7 12.6 7.7Z" />
</symbol>

<symbol id="icon-pinterest" viewBox="0 0 32 32" >
  <path fill-rule="evenodd" clip-rule="evenodd" d="M0 16C0 7.16344 7.16344 0 16 0C24.8366 0 32 7.16344 32 16C32 24.8366 24.8366 32 16 32C7.16344 32 0 24.8366 0 16ZM8 16C8 11.6 11.6 8 16 8C20.4 8 24 11.6 23.9 15.6C23.9 20 20.3 23.6 15.9 23.6C15.1 23.6 14.3 23.5 13.6 23.3C13.9 22.8 14.2 22.2 14.4 21.6C14.5 21.2 15 19.4 15 19.4C15.3 19.9 16.1 20.4 17 20.4C19.6 20.4 21.3 18 21.3 14.9C21.3 12.5 19.3 10.3 16.2 10.3C12.4 10.3 10.5 13 10.5 15.3C10.5 16.7 11 17.9 12.1 18.4C12.3 18.5 12.4 18.4 12.5 18.2C12.6 18.1 12.7 17.7 12.7 17.6C12.7707 17.4586 12.7414 17.4172 12.6828 17.3343C12.6586 17.3 12.6293 17.2586 12.6 17.2C12.3 16.8 12.1 16.3 12.1 15.6C12.1 13.6 13.6 11.8 16 11.8C18.1 11.8 19.3 13.1 19.3 14.9C19.3 17.3 18.3 19.2 16.8 19.2C15.9 19.2 15.3 18.5 15.5 17.7C15.5835 17.2826 15.7192 16.8477 15.8491 16.4318C16.0303 15.8514 16.2 15.3078 16.2 14.9C16.2 14.2 15.8 13.7 15.1 13.7C14.3 13.7 13.6 14.6 13.6 15.8C13.6 16.6 13.9 17.1 13.9 17.1C13.9 17.1 13.1 20.8 12.9 21.5C12.8 22.1 12.8 22.6999 12.8 23.2999C10 22.0999 8 19.3 8 16Z" />
</symbol>

<!-- <symbol id="header-logo1" viewBox="0 0 115 119">
  <g clip-path="url(#clip0_1_5)" filter="url(#filter0_d_1_5)">
    <path d="M107.76 41.2578C109.109 48.9756 100.833 46.9199 100.833 46.9199C97.3693 37.2546 91.8273 38.1563 91.8273 38.1563C96.1661 41.2939 96.4942 43.9626 96.4942 43.9626C84.9364 35.8481 69.222 42.3758 63.2426 45.4413C59.8882 40.7529 53.1066 30.2581 55.513 25.4976C58.685 19.2585 65.1385 22.8289 65.1385 22.8289C78.1912 22.6125 77.462 17.9962 77.462 17.9962C73.9983 20.665 63.7895 17.9962 63.7895 17.9962C72.6493 17.9962 76.4047 14.4259 76.4047 14.4259C69.8054 16.0488 62.4404 9.08833 62.4404 9.08833C59.7424 -4.58009 47.273 1.22629 47.273 1.22629C55.0755 -0.108098 52.9972 8.07853 52.9972 8.07853C43.2259 11.5046 44.1374 16.9864 44.1374 16.9864C47.3095 12.6948 50.0075 12.3702 50.0075 12.3702C41.0748 24.8124 49.6794 42.1233 52.2316 46.6314C47.5647 49.8411 36.6266 56.9098 31.7045 54.4574C25.3969 51.3198 29.0065 44.9364 29.0065 44.9364C28.8606 32.0253 24.1937 32.7466 24.1937 32.7466C26.8918 36.1727 24.1937 46.2708 24.1937 46.2708C24.1937 37.5071 20.5842 33.7925 20.5842 33.7925C22.2249 40.3201 15.188 47.6051 15.188 47.6051C1.36964 50.2739 7.23973 62.6079 7.23973 62.6079C5.8907 54.8901 14.1672 56.9458 14.1672 56.9458C17.6309 66.6111 23.1728 65.7095 23.1728 65.7095C18.8341 62.5719 18.5059 59.9031 18.5059 59.9031C30.7201 68.4864 47.6011 60.6965 52.7056 57.9556C56.1328 62.8243 62.5134 72.8502 60.1434 77.5025C56.9714 83.7417 50.518 80.1713 50.518 80.1713C37.4652 80.3156 38.1944 84.9318 38.1944 84.9318C41.6581 82.263 51.867 84.9318 51.867 84.9318C43.0072 84.9318 39.2518 88.5022 39.2518 88.5022C45.8511 86.8793 53.216 93.8397 53.216 93.8397C55.9141 107.508 68.3834 101.702 68.3834 101.702C60.581 103.036 62.6592 94.8495 62.6592 94.8495C72.4305 91.4234 71.519 85.9416 71.519 85.9416C68.347 90.2333 65.6489 90.5579 65.6489 90.5579C74.3994 78.4042 66.3417 61.5621 63.6072 56.6212C68.5657 53.1951 78.5923 47.0642 83.2227 49.3723C89.5303 52.5099 85.9208 58.8933 85.9208 58.8933C86.0666 71.8044 90.7335 71.0831 90.7335 71.0831C88.0355 67.657 90.7335 57.5589 90.7335 57.5589C90.7335 66.3226 94.3431 70.0372 94.3431 70.0372C92.7024 63.5095 99.7392 56.2245 99.7392 56.2245C113.631 53.5918 107.76 41.2578 107.76 41.2578Z" />
  </g>
  <defs>
    <filter id="filter0_d_1_5" x="0" y="0" filterUnits="userSpaceOnUse" color-interpolation-filters="sRGB">
      <feFlood flood-opacity="0" result="BackgroundImageFix" />
      <feColorMatrix in="SourceAlpha" type="matrix" values="0 0 0 0 0 0 0 0 0 0 0 0 0 0 0 0 0 0 127 0" result="hardAlpha" />
      <feOffset dy="10" />
      <feGaussianBlur stdDeviation="3" />
      <feComposite in2="hardAlpha" operator="out" />
      <feColorMatrix type="matrix" values="0 0 0 0 0 0 0 0 0 0 0 0 0 0 0 0 0 0 0.25 0" />
      <feBlend mode="normal" in2="BackgroundImageFix" result="effect1_dropShadow_1_5" />
      <feBlend mode="normal" in="SourceGraphic" in2="effect1_dropShadow_1_5" result="shape" />
    </filter>
    <linearGradient id="paint0_linear_1_5" x1="57.4966" y1="0.00115967" x2="57.4966" y2="102.927" gradientUnits="userSpaceOnUse">
      <stop stop-color="#C0B7E8" />
      <stop offset="1" stop-color="#8176AF" />
    </linearGradient>
    <clipPath id="clip0_1_5">
      <rect width="103" height="103" fill="white" transform="translate(6)" />
    </clipPath>
  </defs>
</symbol> -->

<!-- <symbol id="header-logo2" viewBox="0 0 76 46">
  <g clip-path="url(#clip0_1_9)">
    <path d="M0 0H2.32086V27.4049H9.25075V0H11.5716V46H9.25075V29.7131H2.32086V46H0V0Z" fill="url(#paint0_linear_1_9)" />
    <path d="M28.7329 0L22.9798 29.7131V46H20.6589V29.7131L14.8731 0H16.9978L21.8357 24.7717L26.6408 0H28.7329Z" />
    <path d="M38.997 46H32.0344V0H38.9643C41.5467 0 43.5733 2.04806 43.5733 4.58375V41.3837C43.606 43.8869 41.5467 46 38.997 46ZM34.3553 2.30813V43.6919H38.9643C40.2065 43.6919 41.2852 42.6516 41.2852 41.3837V4.58375C41.2852 3.34841 40.2392 2.27562 38.9643 2.27562H34.3553V2.30813Z" />
    <path d="M58.806 46H56.4198L52.3338 29.7131H49.5553V46H47.2344V0H54.1643C56.7467 0 58.7733 2.04806 58.7733 4.58375V25.0968C58.7733 27.4049 56.9755 29.3555 54.6873 29.6155L58.806 46ZM49.5553 27.4049H54.1643C55.4064 27.4049 56.4852 26.3647 56.4852 25.0968V4.58375C56.4852 3.34841 55.4391 2.27562 54.1643 2.27562H49.5553V27.4049Z" />
    <path d="M65.8013 29.7131L64.1996 46H62.1075L66.7492 0H71.3583L75.9673 46H73.8753L72.2735 29.7131H65.8013ZM69.495 2.30813H68.5798L66.0628 27.4049H72.012L69.495 2.30813Z" />
  </g>
  <defs>
    <linearGradient id="paint0_linear_1_9" x1="5.78581" y1="0" x2="5.78581" y2="46" gradientUnits="userSpaceOnUse">
      <stop stop-color="#C0B7E8" />
      <stop offset="1" stop-color="#8176AF" />
    </linearGradient>
    <linearGradient id="paint1_linear_1_9" x1="21.803" y1="0" x2="21.803" y2="46" gradientUnits="userSpaceOnUse">
      <stop stop-color="#C0B7E8" />
      <stop offset="1" stop-color="#8176AF" />
    </linearGradient>
    <linearGradient id="paint2_linear_1_9" x1="37.8041" y1="0" x2="37.8041" y2="46" gradientUnits="userSpaceOnUse">
      <stop stop-color="#C0B7E8" />
      <stop offset="1" stop-color="#8176AF" />
    </linearGradient>
    <linearGradient id="paint3_linear_1_9" x1="53.0202" y1="0" x2="53.0202" y2="46" gradientUnits="userSpaceOnUse">
      <stop stop-color="#C0B7E8" />
      <stop offset="1" stop-color="#8176AF" />
    </linearGradient>
    <linearGradient id="paint4_linear_1_9" x1="69.0374" y1="0" x2="69.0374" y2="46" gradientUnits="userSpaceOnUse">
      <stop stop-color="#C0B7E8" />
      <stop offset="1" stop-color="#8176AF" />
    </linearGradient>
    <clipPath id="clip0_1_9">
      <rect width="76" height="46" fill="white" />
    </clipPath>
  </defs>
</symbol> -->

<symbol id="introduction-arrow" viewBox="0 0 100 100">
  <path d="M70.8333 50L29.1667 50M70.8333 50L54.1667 66.6667M70.8333 50L54.1667 33.3333" stroke-width="3" stroke-linecap="round" stroke-linejoin="round" />
</symbol>
	
</svg>
